<svg width="772" height="859" viewBox="0 0 772 859" fill="none" xmlns="http://www.w3.org/2000/svg">
<path d="M751.631 656.505L399.436 855.005L399.436 708.505L624.631 585.505L751.631 656.505Z" fill="#FDF8D4"/>
<path d="M370.099 856.635L22.0957 650.875L148.968 577.625L368.087 711.149L370.099 856.635Z" fill="#FDF8D4"/>
<path d="M404.532 0L752.535 205.76L625.663 279.01L406.544 145.485L404.532 0Z" fill="#FDF8D4"/>
<path d="M18 205.13L370.195 6.62988L370.195 153.13L145 276.13L18 205.13Z" fill="#FDF8D4"/>
<path d="M0 639.26L0 234L131.064 308.25L131.064 563L0 639.26Z" fill="#FDF8D4"/>
<path d="M771.064 229V634.5L640 560.01V302L771.064 229Z" fill="#FDF8D4"/>
</svg>
