<svg width="435" height="467" viewBox="0 0 435 467" fill="none" xmlns="http://www.w3.org/2000/svg">
<path d="M425 233.5C425 242.328 420.694 251.675 410.935 261.17C401.143 270.696 386.455 279.735 367.49 287.538C329.609 303.127 276.584 313 217.5 313C158.416 313 105.391 303.127 67.5096 287.538C48.5451 279.735 33.8566 270.696 24.0654 261.17C14.3057 251.675 10 242.328 10 233.5C10 224.672 14.3057 215.325 24.0654 205.83C33.8566 196.304 48.5451 187.265 67.5096 179.462C105.391 163.873 158.416 154 217.5 154C276.584 154 329.609 163.873 367.49 179.462C386.455 187.265 401.143 196.304 410.935 205.83C420.694 215.325 425 224.672 425 233.5Z" stroke="#86C1BD" stroke-width="20"/>
<path d="M321.25 413.2C313.605 417.614 303.357 418.559 290.254 414.854C277.109 411.138 261.937 402.936 245.697 390.415C213.256 365.402 178.193 324.418 148.651 273.25C119.109 222.081 101.147 171.224 95.7062 130.624C92.9822 110.298 93.4661 93.0578 96.8199 79.8156C100.163 66.6158 106.105 58.2136 113.75 53.7997C121.395 49.3857 131.643 48.4411 144.746 52.1458C157.891 55.8623 173.063 64.0634 189.303 76.5853C221.744 101.598 256.807 142.581 286.349 193.75C315.891 244.918 333.853 295.776 339.294 336.376C342.018 356.702 341.534 373.942 338.18 387.184C334.837 400.384 328.895 408.786 321.25 413.2Z" stroke="#86C1BD" stroke-width="20"/>
<path d="M321.25 53.7997C328.895 58.2136 334.837 66.6159 338.18 79.8156C341.534 93.0579 342.018 110.298 339.294 130.624C333.853 171.224 315.891 222.081 286.349 273.25C256.807 324.418 221.744 365.402 189.303 390.415C173.063 402.936 157.891 411.138 144.746 414.854C131.643 418.559 121.395 417.614 113.75 413.2C106.105 408.786 100.163 400.384 96.8199 387.184C93.466 373.942 92.9822 356.702 95.7062 336.376C101.147 295.776 119.109 244.918 148.651 193.75C178.193 142.581 213.256 101.598 245.697 76.5853C261.937 64.0634 277.109 55.8624 290.254 52.1458C303.357 48.4411 313.605 49.3858 321.25 53.7997Z" stroke="#86C1BD" stroke-width="20"/>
<circle cx="217" cy="233" r="40" fill="#86C1BD"/>
</svg>
